<?xml version="1.0" standalone="no"?><!DOCTYPE svg PUBLIC "-//W3C//DTD SVG 1.1//EN" "http://www.w3.org/Graphics/SVG/1.1/DTD/svg11.dtd"><svg class="icon" width="200px" height="200.00px" viewBox="0 0 1024 1024" version="1.1" xmlns="http://www.w3.org/2000/svg"><path d="M298.666667 149.333333h597.333333a42.666667 42.666667 0 1 1 0 85.333334H298.666667a42.666667 42.666667 0 1 1 0-85.333334z m0 320h597.333333a42.666667 42.666667 0 1 1 0 85.333334H298.666667a42.666667 42.666667 0 1 1 0-85.333334z m0 320h597.333333a42.666667 42.666667 0 1 1 0 85.333334H298.666667a42.666667 42.666667 0 1 1 0-85.333334zM128 149.333333a42.666667 42.666667 0 1 1 0 85.333334 42.666667 42.666667 0 0 1 0-85.333334z m0 320a42.666667 42.666667 0 1 1 0 85.333334 42.666667 42.666667 0 0 1 0-85.333334z m0 320a42.666667 42.666667 0 1 1 0 85.333334 42.666667 42.666667 0 0 1 0-85.333334z" fill="#5F6A7A" /></svg>