<?xml version="1.0" standalone="no"?><!DOCTYPE svg PUBLIC "-//W3C//DTD SVG 1.1//EN" "http://www.w3.org/Graphics/SVG/1.1/DTD/svg11.dtd"><svg t="1752719571419" class="icon" viewBox="0 0 1024 1024" version="1.1" xmlns="http://www.w3.org/2000/svg" p-id="10676" xmlns:xlink="http://www.w3.org/1999/xlink" width="200" height="200"><path d="M536.2112 0c27.362133 49.8048 44.4416 116.8768 44.4416 191.125333 0 153.2928-71.7184 277.597867-160.247467 277.597867-68.992 0-127.291733-76.002133-149.870933-181.994667C190.372267 399.940267 122.856533 534.045867 122.856533 666.773333 122.856533 864.0768 297.098667 1024 511.9808 1024c214.920533 0 389.162667-159.9232 389.162667-357.226667C901.1392 308.3776 550.5216 11.968 536.2112 0L536.2112 0zM515.197867 938.615467c-131.0976 0-170.218667-101.508267-163.464533-142.446933 13.4656-81.582933 94.0288-94.894933 154.88-94.894933 144.8192 0 203.1232-150.754133 206.5664-189.8368C713.175467 511.4368 765.314133 938.615467 515.197867 938.615467L515.197867 938.615467z" fill="#EE7E2E" p-id="10677"></path></svg>