<?xml version="1.0" standalone="no"?><!DOCTYPE svg PUBLIC "-//W3C//DTD SVG 1.1//EN" "http://www.w3.org/Graphics/SVG/1.1/DTD/svg11.dtd"><svg class="icon" width="200px" height="200.00px" viewBox="0 0 1024 1024" version="1.1" xmlns="http://www.w3.org/2000/svg"><path d="M512 85.333333C276.352 85.333333 85.333333 276.352 85.333333 512s191.018667 426.666667 426.666667 426.666667 426.666667-191.018667 426.666667-426.666667l-0.106667-3.2A42.666667 42.666667 0 0 0 853.333333 512c0 188.522667-152.810667 341.333333-341.333333 341.333333S170.666667 700.522667 170.666667 512 323.477333 170.666667 512 170.666667a340.053333 340.053333 0 0 1 225.792 85.333333H682.666667a42.666667 42.666667 0 0 0-3.2 85.226667L682.666667 341.333333h149.333333a43.008 43.008 0 0 0 7.850667-0.725333l1.813333-0.362667a42.410667 42.410667 0 0 0 2.666667-0.725333l0.576-0.170667a42.282667 42.282667 0 0 0 2.730666-0.981333l0.917334-0.362667 2.112-0.96 0.512-0.256a42.645333 42.645333 0 0 0 12.373333-9.386666l1.344-1.557334a42.666667 42.666667 0 0 0 9.664-24L874.666667 298.666667V149.333333a42.666667 42.666667 0 0 0-85.226667-3.2L789.333333 149.333333v38.4A424.981333 424.981333 0 0 0 512 85.333333z" fill="#5F6A7A" /></svg>