<?xml version="1.0" standalone="no"?><!DOCTYPE svg PUBLIC "-//W3C//DTD SVG 1.1//EN" "http://www.w3.org/Graphics/SVG/1.1/DTD/svg11.dtd"><svg t="1752461742861" class="icon" viewBox="0 0 1024 1024" version="1.1" xmlns="http://www.w3.org/2000/svg" p-id="28104" xmlns:xlink="http://www.w3.org/1999/xlink" width="200" height="200"><path d="M797.3376 168.96c97.1264 0 175.9232 84.8384 175.9232 189.44v307.2c0 104.6016-78.7968 189.44-175.9232 189.44H226.6624C129.536 855.04 50.7392 770.2016 50.7392 665.6V358.4c0-104.6016 78.7968-189.44 175.9232-189.44h570.6752z m0 71.68H226.6624c-60.416 0-109.3632 52.736-109.3632 117.76v307.2c0 65.024 48.9984 117.76 109.3632 117.76h570.6752c60.416 0 109.3632-52.736 109.3632-117.76V358.4c0-65.024-48.9984-117.76-109.3632-117.76zM435.9168 338.2272c9.472 0 18.7904 2.816 26.9312 8.0384L552.9088 404.48l91.648 59.2384c24.832 15.9744 32.8704 50.5856 17.9712 77.2608a54.4768 54.4768 0 0 1-17.92 19.3024L552.9088 619.52l-90.112 58.2144c-24.7296 15.9744-56.832 7.3216-71.7312-19.3536a59.5968 59.5968 0 0 1-7.4752-28.928V394.5472c0-31.0784 23.4496-56.32 52.3264-56.32z m14.2336 83.456v180.5824l68.5056-44.1856 71.2704-46.08-71.2704-46.08-68.5056-44.2368z" p-id="28105" fill="#5f6a7a"></path></svg>