<?xml version="1.0" standalone="no"?><!DOCTYPE svg PUBLIC "-//W3C//DTD SVG 1.1//EN" "http://www.w3.org/Graphics/SVG/1.1/DTD/svg11.dtd"><svg class="icon" width="200px" height="200.00px" viewBox="0 0 1024 1024" version="1.1" xmlns="http://www.w3.org/2000/svg"><path d="M341.333333 106.666667a128 128 0 0 1 128 128v106.666666a128 128 0 0 1-128 128h-106.666666a128 128 0 0 1-128-128v-106.666666a128 128 0 0 1 128-128h106.666666z m0 85.333333h-106.666666a42.666667 42.666667 0 0 0-42.56 39.466667L192 234.666667v106.666666a42.666667 42.666667 0 0 0 39.466667 42.56L234.666667 384h106.666666a42.666667 42.666667 0 0 0 42.56-39.466667L384 341.333333v-106.666666a42.666667 42.666667 0 0 0-39.466667-42.56L341.333333 192z m448-85.333333a128 128 0 0 1 128 128v106.666666a128 128 0 0 1-128 128h-106.666666a128 128 0 0 1-128-128v-106.666666a128 128 0 0 1 128-128h106.666666z m0 85.333333h-106.666666a42.666667 42.666667 0 0 0-42.56 39.466667L640 234.666667v106.666666a42.666667 42.666667 0 0 0 39.466667 42.56L682.666667 384h106.666666a42.666667 42.666667 0 0 0 42.56-39.466667L832 341.333333v-106.666666a42.666667 42.666667 0 0 0-39.466667-42.56L789.333333 192zM341.333333 554.666667a128 128 0 0 1 128 128v106.666666a128 128 0 0 1-128 128h-106.666666a128 128 0 0 1-128-128v-106.666666a128 128 0 0 1 128-128h106.666666z m0 85.333333h-106.666666a42.666667 42.666667 0 0 0-42.56 39.466667L192 682.666667v106.666666a42.666667 42.666667 0 0 0 39.466667 42.56L234.666667 832h106.666666a42.666667 42.666667 0 0 0 42.56-39.466667L384 789.333333v-106.666666a42.666667 42.666667 0 0 0-39.466667-42.56L341.333333 640z m448-85.333333a128 128 0 0 1 128 128v106.666666a128 128 0 0 1-128 128h-106.666666a128 128 0 0 1-128-128v-106.666666a128 128 0 0 1 128-128h106.666666z m0 85.333333h-106.666666a42.666667 42.666667 0 0 0-42.56 39.466667L640 682.666667v106.666666a42.666667 42.666667 0 0 0 39.466667 42.56L682.666667 832h106.666666a42.666667 42.666667 0 0 0 42.56-39.466667L832 789.333333v-106.666666a42.666667 42.666667 0 0 0-39.466667-42.56L789.333333 640z" fill="#5F6A7A" /></svg>