<?xml version="1.0" standalone="no"?><!DOCTYPE svg PUBLIC "-//W3C//DTD SVG 1.1//EN" "http://www.w3.org/Graphics/SVG/1.1/DTD/svg11.dtd"><svg class="icon" width="200px" height="200.00px" viewBox="0 0 1024 1024" version="1.1" xmlns="http://www.w3.org/2000/svg"><path d="M149.333333 256h725.333334a42.666667 42.666667 0 1 1 0 85.333333H149.333333a42.666667 42.666667 0 1 1 0-85.333333z m256-149.333333h213.333334a42.666667 42.666667 0 1 1 0 85.333333H405.333333a42.666667 42.666667 0 1 1 0-85.333333z" fill="#5F6A7A" /><path d="M789.333333 298.666667a42.666667 42.666667 0 0 1 42.666667 42.666666v448a128 128 0 0 1-128 128H320a128 128 0 0 1-128-128V341.333333l0.106667-3.2A42.666667 42.666667 0 0 1 277.333333 341.333333v448a42.666667 42.666667 0 0 0 39.466667 42.56L320 832h384a42.666667 42.666667 0 0 0 42.56-39.466667L746.666667 789.333333V341.333333l0.106666-3.2A42.666667 42.666667 0 0 1 789.333333 298.666667z" fill="#5F6A7A" /></svg>