<?xml version="1.0" standalone="no"?><!DOCTYPE svg PUBLIC "-//W3C//DTD SVG 1.1//EN" "http://www.w3.org/Graphics/SVG/1.1/DTD/svg11.dtd"><svg class="icon" width="200px" height="200.00px" viewBox="0 0 1024 1024" version="1.1" xmlns="http://www.w3.org/2000/svg"><path d="M597.333333 170.666667v42.666666a64 64 0 0 1-64 64h-42.666666a64 64 0 0 1-64-64V170.666667a64 64 0 0 1 64-64h42.666666a64 64 0 0 1 64 64z m0 320v42.666666a64 64 0 0 1-64 64h-42.666666a64 64 0 0 1-64-64v-42.666666a64 64 0 0 1 64-64h42.666666a64 64 0 0 1 64 64z m0 320v42.666666a64 64 0 0 1-64 64h-42.666666a64 64 0 0 1-64-64v-42.666666a64 64 0 0 1 64-64h42.666666a64 64 0 0 1 64 64z" fill="#5F6A7A" /></svg>