<?xml version="1.0" standalone="no"?><!DOCTYPE svg PUBLIC "-//W3C//DTD SVG 1.1//EN" "http://www.w3.org/Graphics/SVG/1.1/DTD/svg11.dtd"><svg class="icon" width="200px" height="200.00px" viewBox="0 0 1024 1024" version="1.1" xmlns="http://www.w3.org/2000/svg"><path d="M152 223.36c87.466667-87.466667 229.290667-87.466667 316.778667 0l45.226666 45.248 45.290667-45.226667c87.466667-87.466667 229.290667-87.466667 316.778667 0 87.466667 87.466667 87.466667 229.290667 0 316.778667L574.378667 841.856a85.333333 85.333333 0 0 1-120.682667 0L152 540.16c-87.466667-87.466667-87.466667-229.312 0-316.8z m362.026667 558.165333l98.048-98.069333 3.456-3.562667a138.666667 138.666667 0 0 0 1.749333-187.050666l0.149333-0.128-209.002666-209.002667-3.562667-3.456a138.666667 138.666667 0 0 0-192.533333 199.552l301.696 301.717333z m105.6-497.813333l-45.248 45.248 98.048 98.069333a223.04 223.04 0 0 1 64.064 132.053334l79.232-79.274667a138.666667 138.666667 0 0 0-192.512-199.552l-3.584 3.456z" fill="#5F6A7A" /></svg>