<?xml version="1.0" standalone="no"?><!DOCTYPE svg PUBLIC "-//W3C//DTD SVG 1.1//EN" "http://www.w3.org/Graphics/SVG/1.1/DTD/svg11.dtd"><svg class="icon" width="200px" height="200.00px" viewBox="0 0 1024 1024" version="1.1" xmlns="http://www.w3.org/2000/svg"><path d="M789.333333 106.666667H234.666667a128 128 0 0 0-128 128v554.666666a128 128 0 0 0 128 128h554.666666a128 128 0 0 0 128-128V234.666667a128 128 0 0 0-128-128zM234.666667 192h554.666666a42.666667 42.666667 0 0 1 42.666667 42.666667v554.666666a42.666667 42.666667 0 0 1-42.666667 42.666667H234.666667a42.666667 42.666667 0 0 1-42.666667-42.666667V234.666667a42.666667 42.666667 0 0 1 42.666667-42.666667z" fill="#5F6A7A" /><path d="M277.333333 469.333333m42.666667 0l384 0q42.666667 0 42.666667 42.666667l0 0q0 42.666667-42.666667 42.666667l-384 0q-42.666667 0-42.666667-42.666667l0 0q0-42.666667 42.666667-42.666667Z" fill="#5F6A7A" /></svg>