<?xml version="1.0" standalone="no"?><!DOCTYPE svg PUBLIC "-//W3C//DTD SVG 1.1//EN" "http://www.w3.org/Graphics/SVG/1.1/DTD/svg11.dtd"><svg class="icon" width="200px" height="200.00px" viewBox="0 0 1024 1024" version="1.1" xmlns="http://www.w3.org/2000/svg"><path d="M640 170.666667a128 128 0 0 1 128 128v47.466666l79.68-26.56a85.333333 85.333333 0 0 1 106.453333 49.834667l1.493334 4.138667A85.333333 85.333333 0 0 1 960 400.533333v222.933334a85.333333 85.333333 0 0 1-112.32 80.96L768 677.845333V725.333333a128 128 0 0 1-123.2 127.914667L640 853.333333H192a128 128 0 0 1-128-128V298.666667a128 128 0 0 1 128-128h448z m0 85.333333H192a42.666667 42.666667 0 0 0-42.666667 42.666667v426.666666a42.666667 42.666667 0 0 0 42.666667 42.666667h448a42.666667 42.666667 0 0 0 42.666667-42.666667v-77.077333a64 64 0 0 1 0.533333-8.256H682.666667V384h0.533333a64.618667 64.618667 0 0 1-0.533333-8.256V298.666667a42.666667 42.666667 0 0 0-42.666667-42.666667z m206.592 153.898667L768 436.053333v151.829334l78.592 26.197333A21.333333 21.333333 0 0 0 874.666667 593.877333v-163.754666a21.333333 21.333333 0 0 0-28.074667-20.224zM405.333333 320a42.666667 42.666667 0 1 1 0 85.333333h-149.333333a42.666667 42.666667 0 1 1 0-85.333333h149.333333z" fill="#5F6A7A" /></svg>